PathFileType	4	(X/Y/Z)	E:\Marcel_BSc\Ayumi_22_01_2025\22-01-2025\sumo_dl_0.trc
DataRate	CameraRate	NumFrames	NumMarkers	Units	OrigDataRate	OrigDataStartFrame	OrigNumFrames
200.0	200.0	7	48	mm	200.0	1	2582	
Frame#	Time	RUFIN			FHD			LBHD			RBHD			RBAR			LBAR			RSACR			LSACR			LASI			USACR			LTHI2			C7			CLAV			T10			RSHO			LSHO			LTHI1			LTHI3			LTIB1			LTIB2			LTIB3			LMMAL			LLMAL			LHEE			LMT1			LMT5			LMT3			RTHI1			RTHI2			RTHI3			RTIB1			RTIB3			RTIB2			RLMAL			RMMAL			RHEE			RMT5			RMT1			RMT3			LDUPA			LMUPA			LUUPA			LRAD			RRAD			RUL			RMUPA			RDUPA			RUUPA			
		X1	Y1	Z1	X2	Y2	Z2	X3	Y3	Z3	X4	Y4	Z4	X5	Y5	Z5	X6	Y6	Z6	X7	Y7	Z7	X8	Y8	Z8	X9	Y9	Z9	X10	Y10	Z10	X11	Y11	Z11	X12	Y12	Z12	X13	Y13	Z13	X14	Y14	Z14	X15	Y15	Z15	X16	Y16	Z16	X17	Y17	Z17	X18	Y18	Z18	X19	Y19	Z19	X20	Y20	Z20	X21	Y21	Z21	X22	Y22	Z22	X23	Y23	Z23	X24	Y24	Z24	X25	Y25	Z25	X26	Y26	Z26	X27	Y27	Z27	X28	Y28	Z28	X29	Y29	Z29	X30	Y30	Z30	X31	Y31	Z31	X32	Y32	Z32	X33	Y33	Z33	X34	Y34	Z34	X35	Y35	Z35	X36	Y36	Z36	X37	Y37	Z37	X38	Y38	Z38	X39	Y39	Z39	X40	Y40	Z40	X41	Y41	Z41	X42	Y42	Z42	X43	Y43	Z43	X44	Y44	Z44	X45	Y45	Z45	X46	Y46	Z46	X47	Y47	Z47	X48	Y48	Z48	
1	-0.005	296.96176	1302.0323	-1672.9532	138.35858	1528.2233	-960.28241	154.34407	1511.5203	-899.78369	177.77745	1498.0892	-1030.4711	221.29968	236.66011	-2070.9512	236.59909	250.52821	150.4642	371.7518	873.00525	-1007.8154	370.30017	875.10583	-934.70416				365.86292	885.2099	-972.45789	290.88394	521.78949	-687.70276	327.84253	1315.7338	-954.87085	192.51878	1247.7683	-968.33319	354.76938	1039.7717	-964.38965	269.93756	1325.5336	-1099.0784	256.69223	1314.108	-819.35706	322.86505	573.71869	-717.30414	334.1189	509.18829	-710.56335	321.90024	241.63898	-565.23993	362.46542	223.32062	-590.09021	336.05112	179.50421	-548.98969	275.91107	65.541649	-560.12048	332.62219	73.156837	-513.15497	340.79413	30.89044	-559.87	186.01071	44.748791	-439.67401				206.54898	41.62933	-411.547	327.52664	570.37781	-1209.7639	296.38354	520.60931	-1240.9991	339.15137	505.95767	-1216.6852	330.22827	272.13315	-1346.5463	338.58752	207.75406	-1359.6443	366.06296	251.04999	-1317.3242	329.26273	70.746147	-1408.1251	256.10474	69.050316	-1381.0564	328.54416	28.2855	-1361.6577	251.31625	25.820057	-1537.787	192.52072	36.006924	-1506.0228	215.16435	33.418594	-1527.3352	335.71179	1234.5428	-634.94391	307.6636	1275.5216	-636.61432	318.32101	1280.9153	-697.69055	262.36545	1264.3652	-306.23627	293.68463	1299.7494	-1600.129	351.99155	1277.5635	-1596.9821	347.38803	1283.702	-1200.7485	353.46609	1274.7072	-1261.8933	363.87979	1237.953	-1192.6178
2	0	296.96973	1301.9451	-1672.9205	138.44331	1528.1412	-960.33759	154.40585	1511.5635	-899.75415	177.86374	1498.0571	-1030.4663	221.31596	236.65778	-2070.9368	236.59389	250.52812	150.46867	371.77234	872.98834	-1007.7921	370.32272	875.09271	-934.68616				365.86502	885.20978	-972.44629	290.92493	521.78717	-687.69891	327.90259	1315.749	-954.82587	192.5415	1247.7871	-968.29248	354.81931	1039.7617	-964.34149	269.97092	1325.5403	-1099.0504	256.74088	1314.1282	-819.32642	322.89499	573.72992	-717.29767	334.13959	509.18686	-710.56702	324.82269	242.72389	-562.38483	362.47333	223.3252	-590.08832	336.09891	179.55499	-548.94659	275.92841	65.530861	-560.09473	332.62167	73.167328	-513.13263	340.79233	30.883471	-559.87152	186.01628	44.739643	-439.68008				206.54404	41.624634	-411.54584	327.57199	570.34235	-1209.7378	296.40799	520.59351	-1240.9958	339.06842	506.6257	-1216.8179	330.21844	272.12503	-1346.5703	338.61188	207.76006	-1359.6348	366.06143	251.07872	-1317.2887	329.24609	70.742958	-1408.137	256.11273	69.032646	-1381.0504	328.5387	28.271717	-1361.6666	251.3121	25.815365	-1537.79	192.52754	36.000294	-1506.0195	215.15785	33.418625	-1527.3274	335.72974	1234.5828	-634.888	307.6828	1275.5682	-636.58948	318.85349	1280.5007	-697.87518	262.36926	1264.4694	-306.19543	293.70831	1299.6951	-1600.113	352.02014	1277.5336	-1596.9564	347.41876	1283.7104	-1200.7141	353.5134	1274.7081	-1261.8617	363.93057	1237.9673	-1192.5826
3	0.005	296.98505	1301.8807	-1672.9098	138.48087	1528.1875	-960.29114	154.43758	1511.5464	-899.75732	177.92207	1498.0786	-1030.4434	221.3103	236.67342	-2070.9434	236.60687	250.52992	150.47408	371.79282	872.96515	-1007.7735	370.34888	875.07367	-934.66968				365.8945	885.19714	-972.43042	290.9408	521.7818	-687.67365	327.94412	1315.7533	-954.7915	192.57979	1247.8015	-968.25916	354.87036	1039.764	-964.30322	270.01117	1325.5511	-1099.0226	256.76321	1314.1517	-819.29211	322.9234	573.69897	-717.28125	334.13599	509.20694	-710.56177	321.8172	241.61021	-565.43268	362.48334	223.31569	-590.10724	336.13959	179.513	-548.94873	275.888	65.561478	-560.12146	332.61844	73.157196	-513.13025	340.80682	30.893299	-559.86121	186.01077	44.740929	-439.68454				206.55438	41.621292	-411.54565	327.58295	570.36682	-1209.7374	296.45361	520.57562	-1240.9913	339.06891	506.62637	-1216.7771	330.23407	272.11096	-1346.5627	338.61179	207.74533	-1359.6567	366.07132	251.07928	-1317.3075	329.24713	70.745331	-1408.1537	256.11398	69.052536	-1381.0505	328.53925	28.27829	-1361.6641	251.32057	25.807087	-1537.7902	192.5257	35.999058	-1506.0222	215.14651	33.409397	-1527.3348	335.75592	1234.6167	-634.85577	307.71164	1275.6066	-636.55542	318.39294	1280.9661	-697.62537	262.37402	1264.5651	-306.16418	293.72418	1299.6534	-1600.0884	352.05542	1277.5193	-1596.9233	347.44855	1283.698	-1200.6855	353.54529	1274.7069	-1261.8375	363.97537	1237.9697	-1192.5493
4	0.01	297.00751	1301.8204	-1672.8872	138.53998	1528.2062	-960.26794	154.49059	1511.549	-899.75055	177.9969	1498.0674	-1030.4224	221.30571	236.6671	-2070.9509	236.60558	250.53027	150.47205	371.80875	872.97858	-1007.7777	370.36832	875.04974	-934.66003				365.89618	885.18066	-972.42603	290.96802	521.78308	-687.67023	328.00772	1315.7439	-954.76373	192.61444	1247.8292	-968.22992	354.92776	1039.7458	-964.26196	270.06079	1325.5322	-1099.0084	256.8175	1314.1868	-819.28491	322.93121	573.75983	-717.28076	334.1597	509.19122	-710.5556	324.84433	242.71143	-562.40051	362.5191	223.30893	-590.11676	336.15558	179.53392	-548.97345	275.90625	65.558914	-560.08948	332.63205	73.170395	-513.12164	340.80322	30.895506	-559.86517	186.00896	44.755859	-439.67178				206.56589	41.637638	-411.54755	327.62592	570.32965	-1209.7346	296.45059	520.5614	-1240.9956	339.1153	506.61862	-1216.7642	330.22855	272.14114	-1346.5591	338.62943	207.75586	-1359.6229	366.09445	251.06374	-1317.306	329.25613	70.734833	-1408.1689	256.1333	69.048416	-1381.0365	328.5452	28.278009	-1361.6711	251.31679	25.81951	-1537.7893	192.51224	35.990944	-1506.0204	215.14703	33.407413	-1527.3287	335.77548	1234.6584	-634.82147	307.74982	1275.6425	-636.52643	318.39154	1281.0098	-697.60406	262.36182	1264.6511	-306.13507	293.75443	1299.6102	-1600.068	352.08084	1277.5048	-1596.9008	347.49927	1283.7013	-1200.6578	353.58444	1274.7065	-1261.811	364.034	1237.9786	-1192.5259
5	0.015	297.0275	1301.7909	-1672.8665	138.56773	1528.2834	-960.19312	154.54201	1511.5812	-899.71936	178.04417	1498.0887	-1030.403	221.32863	236.65004	-2070.9297	236.60114	250.50577	150.46747	371.81564	872.90973	-1007.7697	370.3895	875.03625	-934.65472				365.9176	885.17596	-972.40955	290.97321	521.76276	-687.67206	328.05627	1315.757	-954.73456	192.6458	1247.8568	-968.18414	354.96747	1039.7335	-964.23627	270.09259	1325.5315	-1098.996	256.8396	1314.1769	-819.27026	322.98593	573.69183	-717.25641	334.18268	509.18259	-710.5448	324.88284	242.72055	-562.39502	362.54953	223.30255	-590.12292	336.10568	179.46481	-549.03302	275.90167	65.557396	-560.12628	332.64349	73.157028	-513.11505	340.79684	30.893507	-559.86279	186.02467	44.747112	-439.66895				206.56538	41.616096	-411.52036	327.64926	570.32709	-1209.7197	296.48572	520.56134	-1240.9697	339.12842	506.58566	-1216.7603	330.26471	272.11081	-1346.5435	338.63736	207.73729	-1359.6472	366.08594	251.091	-1317.259	329.30334	70.725159	-1408.174	256.11307	69.023552	-1381.0359	328.5527	28.261097	-1361.675	251.33473	25.812387	-1537.7856	192.50629	35.992298	-1506.0154	215.16257	33.421669	-1527.3198	335.81699	1234.6869	-634.78381	307.77707	1275.67	-636.49475	318.43082	1281.0646	-697.56757	262.36551	1264.734	-306.09485	293.79572	1299.568	-1600.0355	352.12024	1277.4752	-1596.88	347.52859	1283.7145	-1200.6458	353.62634	1274.7163	-1261.7869	364.08612	1237.9911	-1192.4972
6	0.02	297.06082	1301.7598	-1672.8499	138.58856	1528.3688	-960.12939	154.57774	1511.6136	-899.70776	178.07973	1498.1154	-1030.3727	221.33749	236.63724	-2070.9368	236.60477	250.4946	150.46086	371.82062	872.8418	-1007.7888	370.41571	875.00873	-934.65723				365.95135	885.13208	-972.41132	291.00836	521.75616	-687.67633	328.09116	1315.7775	-954.71149	192.67044	1247.8809	-968.15637	355.01379	1039.7112	-964.22046	270.1293	1325.5375	-1098.9688	256.87579	1314.1948	-819.25293	322.99438	573.71118	-717.30652	334.19553	509.17578	-710.56067	324.89664	242.71886	-562.40015	362.56241	223.27304	-590.14008	336.181	179.46051	-548.98462	275.88678	65.584198	-560.1283	332.6514	73.134834	-513.09644	340.82892	30.883282	-559.85162	186.02133	44.717842	-439.67044				206.57449	41.60244	-411.49341	327.70432	570.22998	-1209.7607	296.5018	520.58398	-1240.9341	339.14758	506.6055	-1216.7238	330.25955	272.09442	-1346.5511	338.65088	207.70554	-1359.6531	366.10968	251.02159	-1317.2937	329.30536	70.707642	-1408.1919	256.12442	69.026794	-1381.0482	328.55334	28.229548	-1361.6835	251.33803	25.821474	-1537.7861	192.50804	35.993835	-1506.022	215.16013	33.426685	-1527.3319	335.84348	1234.7167	-634.76166	307.82132	1275.7147	-636.46765	318.46317	1281.1022	-697.53381	262.36557	1264.8129	-306.06128	293.82428	1299.5385	-1599.9978	352.15045	1277.463	-1596.8557	347.56226	1283.719	-1200.6232	353.66901	1274.7234	-1261.7642	364.14661	1238.0005	-1192.485
7	0.025	297.08151	1301.739	-1672.8215	138.62961	1528.4147	-960.08466	154.62514	1511.6342	-899.70551	178.12729	1498.1239	-1030.3506	221.34677	236.60329	-2070.9377	236.60092	250.47652	150.45033	371.83096	872.78314	-1007.8169	370.43573	874.99457	-934.64899				365.95981	885.11548	-972.41357	291.01855	521.75885	-687.65076	328.15479	1315.7878	-954.68744	192.69089	1247.9095	-968.12109	355.0817	1039.7	-964.18091	270.19144	1325.5145	-1098.9519	256.69092	1313.8065	-819.52582	323.01648	573.6756	-717.29102	334.2258	509.17102	-710.54901	324.95276	242.73483	-562.38739	362.58261	223.24139	-590.16217	336.25888	179.48119	-548.95917	275.89789	65.553169	-560.10785	332.6842	73.13829	-513.07025	340.82443	30.870346	-559.85858	186.04436	44.704571	-439.66333				206.56474	41.59222	-411.4729	327.703	570.24695	-1209.7253	296.51791	520.54095	-1240.9379	338.867	506.83655	-1216.7581	330.28247	272.07355	-1346.5046	338.68521	207.69112	-1359.6548	366.16068	250.94136	-1317.3224	329.32037	70.71434	-1408.2006	256.14062	69.008965	-1381.0402	328.5643	28.215683	-1361.6884	251.34305	25.823242	-1537.7875	192.4873	35.98225	-1506.0321	215.13107	33.417961	-1527.3262	335.87207	1234.7524	-634.72797	307.85297	1275.7582	-636.45959	318.9631	1280.7709	-697.68115	262.36194	1264.8781	-306.03983	294.50787	1298.8351	-1600.1096	352.1795	1277.4449	-1596.8444	347.60062	1283.7092	-1200.6078	353.7124	1274.7372	-1261.7462	364.21854	1238.0096	-1192.4718
